<svg width="24" height="24" viewBox="0 0 24 24" fill="none" xmlns="http://www.w3.org/2000/svg">
<path d="M11.9989 3.94313C13.0878 3.94313 13.9705 3.06043 13.9705 1.97156C13.9705 0.882699 13.0878 0 11.9989 0C10.91 0 10.0273 0.882699 10.0273 1.97156C10.0273 3.06043 10.91 3.94313 11.9989 3.94313Z" fill="#239EE1"/>
<path d="M18.0825 12.638C17.5265 6.39133 14.5496 5.14533 14.5496 5.14533C14.5496 5.14533 11.6725 3.41577 8.64386 5.61854C6.6804 7.40568 6.22698 10.1338 5.9166 12.7689C5.75961 14.108 7.85398 14.0918 8.00962 12.7689C8.19494 11.1963 8.45944 9.61655 9.23988 8.27113L9.23628 9.78928L9.22188 17.0849V22.8728C9.22188 23.4949 9.678 24 10.3185 24C10.9586 24 11.4782 23.4949 11.4782 22.8728V14.5997H12.5029C12.5029 16.5379 12.5029 20.9619 12.5029 22.8993C12.5029 24.2488 14.5954 24.2488 14.5954 22.8993C14.5954 20.961 14.5954 19.0223 14.5954 17.0845L14.6841 9.77443C14.685 9.07676 14.6859 8.45331 14.6859 8.01968C15.5221 9.38984 15.7983 11.0173 15.9885 12.6371C16.1455 13.9609 18.2394 13.9771 18.0825 12.638Z" fill="#239EE1"/>
</svg>
